<svg width="40" height="30" viewBox="0 0 40 30" fill="none" xmlns="http://www.w3.org/2000/svg">
<path d="M7.066 1.414C12.609 1.138 16.92 1 20 1C23.08 1 27.393 1.138 32.939 1.415C34.3903 1.48743 35.7659 2.08407 36.8106 3.09412C37.8552 4.10417 38.4978 5.45899 38.619 6.907C38.873 9.941 39 12.613 39 14.924C39 17.263 38.87 19.972 38.61 23.052C38.4893 24.4834 37.859 25.824 36.8338 26.8301C35.8086 27.8363 34.4564 28.4412 33.023 28.535C28.282 28.845 23.941 29 20 29C16.06 29 11.72 28.845 6.982 28.535C5.54907 28.4413 4.19727 27.8368 3.1721 26.8312C2.14693 25.8257 1.51639 24.4859 1.395 23.055C1.132 19.952 1 17.241 1 14.924C1 12.634 1.129 9.961 1.385 6.904C1.50668 5.45634 2.14947 4.102 3.19405 3.09237C4.23862 2.08273 5.61404 1.48638 7.065 1.414H7.066Z" stroke="#F7E02C" stroke-width="2" stroke-linejoin="round"/>
<path d="M17.002 10.61V19.406C17.0019 19.5609 17.0439 19.7129 17.1233 19.8459C17.2028 19.9789 17.3168 20.0878 17.4532 20.1612C17.5896 20.2345 17.7434 20.2695 17.8982 20.2625C18.0529 20.2554 18.2028 20.2065 18.332 20.121L24.929 15.761C25.0469 15.6833 25.1438 15.5776 25.211 15.4534C25.2782 15.3292 25.3137 15.1903 25.3143 15.0491C25.3149 14.9079 25.2806 14.7687 25.2144 14.644C25.1482 14.5192 25.0522 14.4127 24.935 14.334L18.337 9.89801C18.2081 9.81136 18.058 9.76138 17.9028 9.75344C17.7477 9.7455 17.5933 9.77988 17.4561 9.85291C17.319 9.92594 17.2043 10.0349 17.1243 10.168C17.0443 10.3012 17.0021 10.4536 17.002 10.609V10.61Z" stroke="#F7E02C" stroke-width="2" stroke-linejoin="round"/>
</svg>
