<svg width="28" height="28" viewBox="0 0 28 28" fill="none" xmlns="http://www.w3.org/2000/svg">
<path d="M14.0031 6.82281C10.0303 6.82281 6.82588 10.0273 6.82588 14.0001C6.82588 17.9728 10.0303 21.1773 14.0031 21.1773C17.9759 21.1773 21.1804 17.9728 21.1804 14.0001C21.1804 10.0273 17.9759 6.82281 14.0031 6.82281ZM14.0031 18.6662C11.4358 18.6662 9.33698 16.5736 9.33698 14.0001C9.33698 11.4265 11.4296 9.3339 14.0031 9.3339C16.5767 9.3339 18.6693 11.4265 18.6693 14.0001C18.6693 16.5736 16.5704 18.6662 14.0031 18.6662ZM23.148 6.52922C23.148 7.45995 22.3984 8.20329 21.474 8.20329C20.5432 8.20329 19.7999 7.4537 19.7999 6.52922C19.7999 5.60474 20.5495 4.85515 21.474 4.85515C22.3984 4.85515 23.148 5.60474 23.148 6.52922ZM27.9016 8.22827C27.7954 5.98577 27.2832 3.99938 25.6404 2.36279C24.0038 0.726208 22.0174 0.213994 19.7749 0.101556C17.4637 -0.0296204 10.5363 -0.0296204 8.2251 0.101556C5.98885 0.207747 4.00245 0.719961 2.35962 2.35655C0.716788 3.99313 0.21082 5.97953 0.0983826 8.22202C-0.0327942 10.5332 -0.0327942 17.4606 0.0983826 19.7718C0.204573 22.0143 0.716788 24.0007 2.35962 25.6373C4.00245 27.2739 5.9826 27.7861 8.2251 27.8985C10.5363 28.0297 17.4637 28.0297 19.7749 27.8985C22.0174 27.7924 24.0038 27.2801 25.6404 25.6373C27.277 24.0007 27.7892 22.0143 27.9016 19.7718C28.0328 17.4606 28.0328 10.5395 27.9016 8.22827ZM24.9158 22.2517C24.4286 23.476 23.4853 24.4192 22.2548 24.9127C20.412 25.6436 16.0395 25.4749 14.0031 25.4749C11.9668 25.4749 7.58795 25.6373 5.75148 24.9127C4.52716 24.4255 3.58394 23.4823 3.09046 22.2517C2.35962 20.409 2.52828 16.0364 2.52828 14.0001C2.52828 11.9637 2.36587 7.58488 3.09046 5.7484C3.57769 4.52409 4.52091 3.58086 5.75148 3.08739C7.5942 2.35655 11.9668 2.5252 14.0031 2.5252C16.0395 2.5252 20.4183 2.36279 22.2548 3.08739C23.4791 3.57462 24.4223 4.51784 24.9158 5.7484C25.6466 7.59113 25.478 11.9637 25.478 14.0001C25.478 16.0364 25.6466 20.4152 24.9158 22.2517Z" fill="#F7E02C"/>
</svg>
