<svg width="30" height="21" viewBox="0 0 30 21" fill="none" xmlns="http://www.w3.org/2000/svg">
<path d="M1.66667 20.04H28.3333C29.25 20.04 30 19.29 30 18.3734C30 17.4567 29.25 16.7067 28.3333 16.7067H1.66667C0.75 16.7067 0 17.4567 0 18.3734C0 19.29 0.75 20.04 1.66667 20.04ZM1.66667 11.7067H28.3333C29.25 11.7067 30 10.9567 30 10.04C30 9.12337 29.25 8.37337 28.3333 8.37337H1.66667C0.75 8.37337 0 9.12337 0 10.04C0 10.9567 0.75 11.7067 1.66667 11.7067ZM0 1.70671C0 2.62337 0.75 3.37337 1.66667 3.37337H28.3333C29.25 3.37337 30 2.62337 30 1.70671C30 0.790039 29.25 0.0400391 28.3333 0.0400391H1.66667C0.75 0.0400391 0 0.790039 0 1.70671Z" fill="black"/>
</svg>
