<svg width="28" height="28" viewBox="0 0 28 28" fill="none" xmlns="http://www.w3.org/2000/svg">
<path d="M14 0C6.28133 0 0 6.28133 0 14C0 21.7187 6.28133 28 14 28C21.7187 28 28 21.7187 28 14C28 6.28133 21.7187 0 14 0ZM14 2.33333C20.4575 2.33333 25.6667 7.5425 25.6667 14C25.6695 16.793 24.668 19.4938 22.8449 21.6097C21.0218 23.7256 18.4987 25.1154 15.736 25.5255V17.402H19.0587L19.5802 14.0268H15.736V12.1835C15.736 10.7835 16.1968 9.53867 17.507 9.53867H19.6128V6.594C19.243 6.54383 18.4602 6.43533 16.9808 6.43533C13.8915 6.43533 12.0808 8.06633 12.0808 11.7833V14.0268H8.90517V17.402H12.0808V25.4963C9.35637 25.0479 6.88011 23.6454 5.09447 21.5394C3.30884 19.4334 2.33017 16.7611 2.33333 14C2.33333 7.5425 7.5425 2.33333 14 2.33333Z" fill="#F7E02C"/>
</svg>
